<?xml version="1.0" encoding="utf-8"?>
<!-- Generator: Adobe Illustrator 27.5.0, SVG Export Plug-In . SVG Version: 6.00 Build 0)  -->
<svg version="1.1" id="Layer_1" xmlns="http://www.w3.org/2000/svg" xmlns:xlink="http://www.w3.org/1999/xlink" x="0px" y="0px"
	 viewBox="0 0 1024 1024" style="enable-background:new 0 0 1024 1024;" xml:space="preserve">
<style type="text/css">
	.st0{fill:#F2F1EF;}
	.st1{fill:none;stroke:#000000;stroke-width:30;stroke-miterlimit:10;}
	.st2{fill:none;stroke:#000000;stroke-width:28.4764;stroke-miterlimit:10;}
	.st3{fill:#2F302E;}
	.st4{fill:#AA0C20;}
</style>
<g id="Layer_1_00000114051936220107380250000006117601554337683110_">
	<rect y="0" class="st0" width="1024" height="1023.99"/>
</g>
<g id="Layer_2_00000156550522119372630770000000726458112010548112_">
	<path class="st1" d="M823.35,834H201.39c-17.67,0-32-14.33-32-32V224.19c0-17.67,14.33-32,32-32h621.96c17.67,0,32,14.33,32,32V802
		C855.35,819.67,841.02,834,823.35,834z"/>
	<path class="st1" d="M758.53,292.4v213.9c0,21.57-8.57,42.26-23.82,57.52L628.25,670.28"/>
	<circle class="st2" cx="467.58" cy="513.85" r="225.81"/>
	<g>
		<path class="st3" d="M726.28,778.42c-2.38,0-4.32-1.94-4.32-4.32v-39.45c0-2.38,1.94-4.32,4.32-4.32h71.16
			c2.38,0,4.32,1.94,4.32,4.32v39.45c0,2.38-1.94,4.32-4.32,4.32H726.28z"/>
		<path d="M791.76,740.33v28.09h-59.8v-28.09H791.76 M797.44,720.33h-71.16c-7.91,0-14.32,6.41-14.32,14.32v39.45
			c0,7.91,6.41,14.32,14.32,14.32h71.16c7.91,0,14.32-6.41,14.32-14.32v-39.45C811.76,726.74,805.35,720.33,797.44,720.33
			L797.44,720.33z"/>
	</g>
	<g>
		<path class="st3" d="M618.16,709.01c-4.81,0-9.33-1.87-12.73-5.28l-12.71-12.71c-3.4-3.4-5.28-7.92-5.28-12.73
			s1.87-9.33,5.28-12.73l47.72-47.72l38.17,38.17l-47.72,47.71C627.48,707.14,622.96,709.01,618.16,709.01z"/>
		<path d="M640.43,634.82l21.2,21.2l-39.24,39.23c-1.46,1.46-3.11,1.76-4.24,1.76s-2.79-0.31-4.24-1.76l-12.71-12.71
			c-2.34-2.34-2.34-6.15,0-8.49L640.43,634.82 M640.43,604.19c-2.05,0-4.09,0.78-5.65,2.34l-50.55,50.55
			c-11.72,11.72-11.72,30.71,0,42.43l12.71,12.71c5.86,5.86,13.54,8.79,21.21,8.79c7.68,0,15.36-2.93,21.22-8.79l50.55-50.54
			c3.12-3.13,3.12-8.19,0-11.32l-43.83-43.83C644.53,604.97,642.48,604.19,640.43,604.19L640.43,604.19z"/>
	</g>
	<circle class="st4" cx="467.58" cy="513.85" r="118.2"/>
	<g>
		<circle class="st3" cx="758.53" cy="292.4" r="37.41"/>
		<path d="M758.53,269.99c12.36,0,22.41,10.05,22.41,22.41s-10.05,22.41-22.41,22.41s-22.41-10.05-22.41-22.41
			S746.17,269.99,758.53,269.99 M758.53,239.99c-28.95,0-52.41,23.46-52.41,52.41c0,28.95,23.46,52.41,52.41,52.41
			s52.41-23.46,52.41-52.41C810.94,263.45,787.48,239.99,758.53,239.99L758.53,239.99z"/>
	</g>
</g>
</svg>
