<?xml version="1.0" encoding="utf-8"?>
<!-- Generator: Adobe Illustrator 27.5.0, SVG Export Plug-In . SVG Version: 6.00 Build 0)  -->
<svg version="1.1" id="Layer_1" xmlns="http://www.w3.org/2000/svg" xmlns:xlink="http://www.w3.org/1999/xlink" x="0px" y="0px"
	 viewBox="0 0 715.96 671.81" style="enable-background:new 0 0 715.96 671.81;" xml:space="preserve">
<style type="text/css">
	.st0{fill:#829B9D;}
</style>
<g id="Layer_2_00000156550522119372630770000000726458112010548112_">
	<g>
		<path class="st0" d="M668.96,671.81H47c-25.92,0-47-21.08-47-47V47C0,21.08,21.08,0,47,0h621.96c25.92,0,47,21.08,47,47v577.81
			C715.96,650.73,694.88,671.81,668.96,671.81z M47,30c-9.37,0-17,7.63-17,17v577.81c0,9.37,7.63,17,17,17h621.96
			c9.37,0,17-7.63,17-17V47c0-9.37-7.63-17-17-17H47z"/>
	</g>
	<g>
		<path class="st0" d="M484.47,503.7l-21.21-21.21l106.46-106.46c12.53-12.54,19.43-29.2,19.43-46.91v-213.9h30v213.9
			c0,25.73-10.02,49.92-28.21,68.12L484.47,503.7z"/>
	</g>
	<g>
		<path class="st0" d="M313.19,576.71c-64.12,0-124.4-24.97-169.74-70.31c-45.34-45.34-70.31-105.62-70.31-169.74
			s24.97-124.4,70.31-169.74c45.34-45.34,105.62-70.31,169.74-70.31s124.4,24.97,169.74,70.31
			c45.34,45.34,70.31,105.62,70.31,169.74s-24.97,124.4-70.31,169.74S377.31,576.71,313.19,576.71z M313.19,125.09
			c-116.66,0-211.57,94.91-211.57,211.57c0,116.66,94.91,211.57,211.57,211.57s211.57-94.91,211.57-211.57
			C524.76,220,429.85,125.09,313.19,125.09z"/>
	</g>
	<g>
		<g>
			<path class="st0" d="M571.89,601.23c-2.38,0-4.32-1.94-4.32-4.32v-39.45c0-2.38,1.94-4.32,4.32-4.32h71.16
				c2.38,0,4.32,1.94,4.32,4.32v39.45c0,2.38-1.94,4.32-4.32,4.32H571.89z"/>
		</g>
		<g>
			<path class="st0" d="M637.37,563.14v28.09h-59.8v-28.09H637.37 M643.05,543.14h-71.16c-7.91,0-14.32,6.41-14.32,14.32v39.45
				c0,7.91,6.41,14.32,14.32,14.32h71.16c7.91,0,14.32-6.41,14.32-14.32v-39.45C657.37,549.55,650.96,543.14,643.05,543.14
				L643.05,543.14z"/>
		</g>
	</g>
	<g>
		<g>
			<path class="st0" d="M463.77,531.82c-4.81,0-9.33-1.87-12.73-5.28l-12.71-12.71c-3.4-3.4-5.28-7.92-5.28-12.73
				s1.87-9.33,5.28-12.73l47.72-47.72l38.17,38.17l-47.72,47.71C473.09,529.95,468.57,531.82,463.77,531.82z"/>
		</g>
		<g>
			<path class="st0" d="M486.04,457.63l21.2,21.2L468,518.06c-1.46,1.46-3.11,1.76-4.24,1.76s-2.79-0.31-4.24-1.76l-12.71-12.71
				c-2.34-2.34-2.34-6.15,0-8.49L486.04,457.63 M486.04,427c-2.05,0-4.09,0.78-5.65,2.34l-50.55,50.55
				c-11.72,11.72-11.72,30.71,0,42.43l12.71,12.71c5.86,5.86,13.54,8.79,21.21,8.79c7.68,0,15.36-2.93,21.22-8.79l50.55-50.54
				c3.12-3.13,3.12-8.19,0-11.32l-43.83-43.83C490.14,427.78,488.09,427,486.04,427L486.04,427z"/>
		</g>
	</g>
	<g>
		<circle class="st0" cx="313.19" cy="336.66" r="118.2"/>
	</g>
	<g>
		<g>
			<circle class="st0" cx="604.14" cy="115.21" r="37.41"/>
		</g>
		<g>
			<path class="st0" d="M604.14,92.8c12.36,0,22.41,10.05,22.41,22.41s-10.05,22.41-22.41,22.41s-22.41-10.05-22.41-22.41
				S591.78,92.8,604.14,92.8 M604.14,62.8c-28.95,0-52.41,23.46-52.41,52.41c0,28.95,23.46,52.41,52.41,52.41
				s52.41-23.46,52.41-52.41C656.55,86.26,633.09,62.8,604.14,62.8L604.14,62.8z"/>
		</g>
	</g>
</g>
</svg>
